<?xml version="1.0" encoding="utf-8"?>
<!-- Generator: Adobe Illustrator 19.2.1, SVG Export Plug-In . SVG Version: 6.00 Build 0)  -->
<svg version="1.1" id="Capa_1" xmlns="http://www.w3.org/2000/svg" xmlns:xlink="http://www.w3.org/1999/xlink" x="0px" y="0px"
	 viewBox="0 0 600 600" style="enable-background:new 0 0 600 600;" xml:space="preserve">
<style type="text/css">
	.st0{fill:none;stroke:#CAAB51;stroke-width:2;stroke-miterlimit:10;}
</style>
<symbol  id="logo-b" viewBox="-89 -38.5 178 77">
	<path d="M-32.8-38.5L-89,37.4h8.8l47.5-64.8V-38.5z"/>
	<path d="M34.4,0C34.4-29.3,49-37.4,49-37.4S26.9-30.4,26.9,0C26.9,30.4,49,37.4,49,37.4S34.4,29.3,34.4,0z M79.8-18.1
		c0,0,1.1-0.6,1.1-2.2V-28c0-6.6-5.3-9.4-5.3-9.4s12.3,1.4,12.3,9.5v7.6c0,1.6,1.2,2.2,1.2,2.2H79.8z M87.8,28.4
		c0,0-1.5,3.1-3.5,5.1c-2.4,2.4-5.3,3.8-5.3,3.8h8.9V28.4z"/>
	<line class="st0" x1="-89" y1="-0.5" x2="89" y2="-0.5"/>
	<path d="M5.8-37.4l-21.5,65.1l3.4,10.8l25.8-75.9H5.8z"/>
</symbol>
<use xlink:href="#logo-b"  width="178" height="77" x="-89" y="-38.5" transform="matrix(3.22 0 0 -3.22 300 300)" style="overflow:visible;"/>
<g>
</g>
<g>
</g>
<g>
</g>
<g>
</g>
<g>
</g>
<g>
</g>
<g>
</g>
<g>
</g>
<g>
</g>
<g>
</g>
<g>
</g>
<g>
</g>
<g>
</g>
<g>
</g>
<g>
</g>
<g>
</g>
<g>
</g>
<g>
</g>
<g>
</g>
</svg>
